<svg width="580" height="580" viewBox="0 0 580 580" fill="none" xmlns="http://www.w3.org/2000/svg">
<path d="M579.613 289.807C579.613 129.751 449.863 0 289.807 0C129.751 0 0 129.751 0 289.807C0 449.863 129.751 579.613 289.807 579.613C449.863 579.613 579.613 449.863 579.613 289.807Z" fill="#072352"/>
<path d="M562.454 289.807C562.454 440.385 440.386 562.453 289.807 562.453C139.228 562.453 17.1591 440.385 17.1591 289.807C17.1591 139.228 139.228 17.16 289.807 17.16C440.386 17.16 562.454 139.228 562.454 289.807Z" fill="#C8EE47"/>
<path d="M289.807 521.915C417.996 521.914 521.914 417.995 521.914 289.806C521.914 161.617 417.996 57.6991 289.807 57.6989C161.618 57.6989 57.6988 161.617 57.6986 289.806C57.6986 417.995 161.618 521.915 289.807 521.915Z" fill="#072352" stroke="black"/>
<path d="M507.162 289.807C507.162 409.848 409.848 507.161 289.807 507.161C169.764 507.161 72.4509 409.848 72.4509 289.807C72.4509 169.765 169.764 72.452 289.807 72.452C409.848 72.452 507.162 169.765 507.162 289.807Z" fill="#C8EE47"/>
<path d="M516.504 452.413L289.299 295.255L64.0947 449.041L55.4934 436.444L289.373 276.732L524.172 439.887L516.504 452.413Z" fill="#072352"/>
<path d="M282.391 433.016H249.767V400.392H282.391V433.016Z" fill="#072352"/>
<path d="M329.846 433.016H297.222V400.392H329.846V433.016Z" fill="#072352"/>
<path d="M329.846 480.469H297.222V447.845H329.846V480.469Z" fill="#072352"/>
<path d="M282.391 480.469H249.767V447.845H282.391V480.469Z" fill="#072352"/>
<path d="M324.126 186.849C324.126 205.802 308.761 221.168 289.807 221.168C270.853 221.168 255.487 205.802 255.487 186.849C255.487 167.896 270.853 152.53 289.807 152.53C308.761 152.53 324.126 167.896 324.126 186.849Z" fill="#072352"/>
<path d="M308.873 186.849C308.873 197.378 300.337 205.916 289.806 205.916C279.277 205.916 270.741 197.378 270.741 186.849C270.741 176.32 279.277 167.782 289.806 167.782C300.337 167.782 308.873 176.32 308.873 186.849Z" fill="#C8EE47"/>
<path d="M401.344 240.234C401.344 259.188 385.979 274.553 367.025 274.553C348.071 274.553 332.705 259.188 332.705 240.234C332.705 221.281 348.071 205.916 367.025 205.916C385.979 205.916 401.344 221.281 401.344 240.234Z" fill="#072352"/>
<path d="M386.091 240.234C386.091 250.764 377.555 259.301 367.024 259.301C356.495 259.301 347.959 250.764 347.959 240.234C347.959 229.705 356.495 221.168 367.024 221.168C377.555 221.168 386.091 229.705 386.091 240.234Z" fill="#C8EE47"/>
<path d="M478.562 289.807C478.562 308.76 463.197 324.125 444.243 324.125C425.289 324.125 409.923 308.76 409.923 289.807C409.923 270.853 425.289 255.488 444.243 255.488C463.197 255.488 478.562 270.853 478.562 289.807Z" fill="#072352"/>
<path d="M463.309 289.807C463.309 300.336 454.773 308.873 444.243 308.873C433.713 308.873 425.177 300.336 425.177 289.807C425.177 279.277 433.713 270.74 444.243 270.74C454.773 270.74 463.309 279.277 463.309 289.807Z" fill="#C8EE47"/>
<path d="M246.908 240.234C246.908 259.188 231.542 274.553 212.589 274.553C193.634 274.553 178.269 259.188 178.269 240.234C178.269 221.281 193.634 205.916 212.589 205.916C231.542 205.916 246.908 221.281 246.908 240.234Z" fill="#072352"/>
<path d="M231.655 240.234C231.655 250.764 223.119 259.301 212.588 259.301C202.059 259.301 193.523 250.764 193.523 240.234C193.523 229.705 202.059 221.168 212.588 221.168C223.119 221.168 231.655 229.705 231.655 240.234Z" fill="#C8EE47"/>
<path d="M169.689 289.807C169.689 308.76 154.324 324.125 135.371 324.125C116.416 324.125 101.051 308.76 101.051 289.807C101.051 270.853 116.416 255.488 135.371 255.488C154.324 255.488 169.689 270.853 169.689 289.807Z" fill="#072352"/>
<path d="M154.436 289.807C154.436 300.336 145.9 308.873 135.37 308.873C124.84 308.873 116.304 300.336 116.304 289.807C116.304 279.277 124.84 270.74 135.37 270.74C145.9 270.74 154.436 279.277 154.436 289.807Z" fill="#C8EE47"/>
<path d="M486.57 465.216L289.513 328.243L88.8488 465.216L68.6381 446.149L289.454 294.165L507.162 446.149L486.57 465.216Z" fill="#C8EE47"/>
<path d="M446.965 456.227L289.439 346.765L132.597 453.869L123.996 441.272L289.512 328.243L455.672 443.7L446.965 456.227Z" fill="#072352"/>
</svg>
